HIERARCHY
ROOT Hips
{
  OFFSET 3.13124 94.3669 -3.18751
  CHANNELS  6 Xposition Yposition Zposition Zrotation Xrotation Yrotation
  JOINT LeftUpLeg
  {
    OFFSET 8.64259 1.95398 -2.38835
    CHANNELS 3 Zrotation Xrotation Yrotation
    JOINT LeftLeg
    {
      OFFSET 43.7702 0 0
      CHANNELS 3 Zrotation Xrotation Yrotation
      JOINT LeftFoot
      {
        OFFSET 40.6238 0 0
        CHANNELS 3 Zrotation Xrotation Yrotation
        JOINT LeftToeBase
        {
          OFFSET 12.7242 0 0
          CHANNELS 3 Zrotation Xrotation Yrotation
          End Site
          {
            OFFSET 0 0 0
          }
        }
      }
    }
  }
  JOINT RightUpLeg
  {
    OFFSET -8.2249 1.95398 -2.59336
    CHANNELS 3 Zrotation Xrotation Yrotation
    JOINT RightLeg
    {
      OFFSET 43.5653 0 0
      CHANNELS 3 Zrotation Xrotation Yrotation
      JOINT RightFoot
      {
        OFFSET 40.6238 0 0
        CHANNELS 3 Zrotation Xrotation Yrotation
        JOINT RightToeBase
        {
          OFFSET 12.7242 0 0
          CHANNELS 3 Zrotation Xrotation Yrotation
          End Site
          {
            OFFSET 0 0 0
          }
        }
      }
    }
  }
  JOINT Spine
  {
    OFFSET 0.165834 0.87714 6.61349
    CHANNELS 3 Zrotation Xrotation Yrotation
    JOINT Spine1
    {
      OFFSET 7.38962 1.71661e-005 0
      CHANNELS 3 Zrotation Xrotation Yrotation
      JOINT Spine2
      {
        OFFSET 11.9445 1.14441e-005 0
        CHANNELS 3 Zrotation Xrotation Yrotation
        JOINT Spine3
        {
          OFFSET 14.7254 4.19617e-005 0
          CHANNELS 3 Zrotation Xrotation Yrotation
          JOINT Spine4
          {
            OFFSET 10.9679 0 0
            CHANNELS 3 Zrotation Xrotation Yrotation
            JOINT RightShoulder
            {
              OFFSET 2.46616 -1.6653 3.69651
              CHANNELS 3 Zrotation Xrotation Yrotation
              JOINT RightArm
              {
                OFFSET 13.0012 0 0
                CHANNELS 3 Zrotation Xrotation Yrotation
                JOINT RightForeArm
                {
                  OFFSET 28.7848 1.52588e-005 0
                  CHANNELS 3 Zrotation Xrotation Yrotation
                  JOINT RightHand
                  {
                    OFFSET 26.5688 1.52588e-005 0
                    CHANNELS 3 Zrotation Xrotation Yrotation
                    End Site
                    {
                      OFFSET 0 0 0
                    }
                  }
                }
              }
            }
            JOINT LeftShoulder
            {
              OFFSET 2.38034 -1.29275 -3.75231
              CHANNELS 3 Zrotation Xrotation Yrotation
              JOINT LeftArm
              {
                OFFSET 16.3182 6.10352e-005 0
                CHANNELS 3 Zrotation Xrotation Yrotation
                JOINT LeftForeArm
                {
                  OFFSET 27.0901 0 0
                  CHANNELS 3 Zrotation Xrotation Yrotation
                  JOINT LeftHand
                  {
                    OFFSET 24.5451 1.52588e-005 0
                    CHANNELS 3 Zrotation Xrotation Yrotation
                    End Site
                    {
                      OFFSET 0 0 0
                    }
                  }
                }
              }
            }
            JOINT Neck
            {
              OFFSET 5.0226 -0.0266342 0
              CHANNELS 3 Zrotation Xrotation Yrotation
              JOINT Head
              {
                OFFSET 6.69363 2.86102e-005 0
                CHANNELS 3 Zrotation Xrotation Yrotation
                End Site
                {
                  OFFSET 0 0 0
                }
              }
            }
          }
        }
      }
    }
  }
}
MOTION
Frames:	7
Frame Time:	0.0333333
1.62999 84.8 -9.53156 -100.389 -24.6921 -97.1842 -177.126 20.3177 70.1948 -55.2147 -10.4076 -0.0132744 75.5641 6.20259 3.04224 28.7808 3.98001e-006 3.31946e-006 -179.607 35.0811 90.5629 -4.92943 10.7898 0.606597 9.18382 -0.34748 1.65369 28.7808 1.61762e-005 1.91486e-005 -0.13519 8.82356 -91.2216 9.21183 -0.645036 -2.18574 -2.46076 -0.740698 -2.15525 -24.981 0.0414357 -2.27854 -4.96841 0.0414247 -2.27857 101.158 -6.50877 -85.6219 19.0616 18.91 36.4083 -1.90513 1.56798 -41.785 -52.3644 -2.41737 -0.170802 -84.3004 -35.8677 85.3406 3.70255 -28.0493 -25.7683 15.3869 80.7207 -16.4893 82.3482 -23.3497 -29.8002 -34.3508 44.507 21.7313 -26.7667 35.5211 65.6076 
1.99467 85.2086 -9.6298 -100.602 -33.8518 -98.3593 -176.335 21.621 67.0873 -56.6294 -19.348 -0.551804 69.9131 5.15629 2.757 28.7808 3.98001e-006 3.31946e-006 -179.602 38.3237 91.9236 -14.1258 12.0459 0.693066 14.4083 11.7941 18.2256 28.7808 1.61762e-005 1.91486e-005 -0.0520199 8.66107 -91.587 9.54062 -0.771417 -2.43472 -2.13232 -0.877807 -2.39845 -24.6488 0.00319666 -2.55395 -4.6362 0.00321288 -2.55396 101.403 -7.5862 -84.6337 19.4599 18.8125 34.0106 -2.34373 1.0273 -41.8548 -53.2702 -4.4984 3.94618 -83.6673 -37.0519 86.6493 8.65408 -28.2221 -16.5977 146.735 85.9274 -147.846 70.0173 -7.70217 -14.9706 -33.3403 42.1031 22.1396 -23.4228 35.8705 59.2527 
1.85752 85.6043 -9.09032 -101.033 -45.4809 -99.8291 -176.027 21.4734 64.3583 -56.8959 -26.1829 -1.07518 65.3137 5.65663 3.17159 28.7808 3.98001e-006 3.31946e-006 179.599 44.5325 92.8825 -28.3557 11.9739 0.580066 15.4825 15.4537 22.6312 28.7808 1.61762e-005 1.91486e-005 -0.38542 8.38683 -91.427 10.0809 -1.27123 -2.56834 -1.59186 -1.38302 -2.50994 -24.1076 -0.44092 -2.83145 -4.09497 -0.44094 -2.83145 102.176 -11.4222 -82.1013 18.4323 19.019 30.7117 -0.970989 3.0911 -38.411 -54.8416 -3.51022 1.72093 -85.0337 -34.9597 83.8475 11.2801 -26.4738 -6.0361 130.251 87.0361 -131.361 56.7805 -5.48198 -14.06 -30.6167 40.1834 17.9803 -21.3361 34.544 55.3991 
1.68883 86.1373 -8.35954 -101.92 -57.1419 -100.404 -176.225 20.3297 64.2866 -57.1543 -26.619 -1.11317 62.1241 7.52376 4.38047 28.7808 3.98001e-006 3.31946e-006 179.084 46.1528 94.0547 -34.3235 12.8748 0.560518 11.2955 19.8033 30.6152 28.7808 1.61762e-005 1.91486e-005 -0.75951 8.06281 -91.396 10.7202 -1.85056 -2.77397 -0.952224 -1.97081 -2.6899 -23.4671 -0.931972 -3.20148 -3.4545 -0.931978 -3.20149 103.857 -14.0511 -77.5106 17.0529 19.4131 27.3025 -2.37297 1.27628 -35.9574 -51.6037 -3.08311 1.35549 -86.5566 -30.1003 79.9377 14.0811 -24.1324 5.47366 172.766 74.1838 -173.887 72.4316 -1.52066 -6.07059 -26.9827 38.3479 11.5533 -19.9649 32.6722 52.1444 
1.77212 86.94 -7.17374 -101.831 -68.5876 -99.8206 -177.335 18.1558 65.2194 -54.84 -25.2849 -1.06703 60.9158 9.4924 5.64997 28.7808 3.98001e-006 3.31946e-006 178.629 46.9519 95.0566 -38.0027 15.579 0.686363 9.61405 17.6196 28.4854 28.7808 1.61762e-005 1.91486e-005 -1.10395 7.72152 -91.5415 11.3827 -2.61157 -3.18602 -0.289272 -2.74923 -3.06809 -22.8019 -1.53176 -3.82282 -2.78929 -1.53178 -3.82284 105.48 -15.3122 -73.2871 13.1599 20.4886 23.154 -6.85461 -6.59482 -31.386 -47.4233 -1.19996 -2.40366 -86.9627 -26.2776 78.238 13.7495 -21.6168 14.1411 174.798 69.2191 -175.921 49.1837 3.45581 2.78937 -23.0911 36.0106 7.58611 -18.9375 30.5453 48.3055 
2.45449 88.2372 -5.42172 -98.5552 -79.48 -96.548 -178.282 16.5176 65.857 -52.1716 -22.2339 -0.891128 55.7689 11.4088 7.30492 28.7808 3.98001e-006 3.31946e-006 178.725 47.3063 93.9784 -40.6174 20.5381 0.987042 10.4746 10.2437 17.329 28.7808 1.61762e-005 1.91486e-005 -1.19456 7.40724 -91.9799 11.9844 -3.00535 -4.08728 0.310927 -3.18218 -3.95126 -22.1831 -1.63966 -4.80006 -2.17042 -1.63967 -4.80009 107.105 -11.038 -67.6755 10.4017 21.7044 20.9939 -13.4024 -17.7127 -33.0169 -39.8276 1.62695 -9.75058 -88.0956 -28.5865 76.5272 16.5288 -21.1745 17.9284 175.93 60.9295 -176.964 28.5896 -0.0707988 -4.77027 -23.6766 31.6823 13.2345 -13.4521 29.0676 40.9286 
4.02345 89.9156 -3.56876 -40.8727 -88.1742 -39.2569 -177.741 18.555 66.1468 -52.7036 -20.3884 -0.722913 41.4164 5.20055 3.61452 28.7808 3.98001e-006 3.31946e-006 179.658 45.2692 90.3734 -40.32 20.5622 1.00206 18.4991 3.62097 6.28526 28.7808 1.61762e-005 1.91486e-005 -1.37124 7.21715 -92.3891 12.3542 -3.6234 -4.37411 0.681493 -3.81229 -4.21066 -21.8119 -2.14318 -5.25875 -1.79927 -2.1432 -5.25878 107.489 -12.2923 -66.8549 3.64684 24.891 18.0954 -22.7052 -29.7023 -37.9676 -29.5332 3.23025 -17.6628 -86.1722 -28.509 80.2914 18.013 -26.2569 34.317 159.368 29.1951 -144.614 2.47152 -0.894454 -22.4742 -16.1854 31.7114 8.78103 -19.698 25.9349 42.4237 
